# xmcd CD database file
#
# Track frame offsets:
#	150
#	23363
#	48930
#	68531
#	107373
#	143651
#	164234
#	186906
#	218687
#	248566
#	279340
#
# Disc length: 4035 seconds
#
# Revision: 0
# Processed by: cddbd v1.5.1PL0 Copyright (c) Steve Scherf et al.
# Submitted via: CDex 1.51
#
DISCID=8b0fc10b
DTITLE=Mystic Warriors - In Concert - Live!
DYEAR=2004
DGENRE=New Age
TTITLE0=The Shadow of the Sun
TTITLE1=Behind the Waterfall
TTITLE2=Beyond Reality
TTITLE3=Piano
TTITLE4=Widow's Alley
TTITLE5=Patty's Theme
TTITLE6=Bom Dia Soledad
TTITLE7=Echo of the Desert
TTITLE8=Frontiers
TTITLE9=Clear Water
TTITLE10=At the End of the Rainbow
EXTD=YEAR: 2004
EXTT0=
EXTT1=
EXTT2=
EXTT3=
EXTT4=
EXTT5=
EXTT6=
EXTT7=
EXTT8=
EXTT9=
EXTT10=
PLAYORDER=
